<svg width="85" height="300" xmlns="http://www.w3.org/2000/svg"> <defs>  <linearGradient x2="0.5" spreadMethod="reflect" id="fill_bg">   <stop offset="0" stop-color="#8e8e8e"/>   <stop offset="0.59766" stop-color="#d6d6d6"/>  </linearGradient>  <radialGradient r="0.5" cy="0.5" cx="0.5" spreadMethod="reflect" id="fill_emptytop">   <stop offset="0.5" stop-opacity="0.99219" stop-color="#e0e0e0"/>   <stop offset="1" stop-opacity="0.99219" stop-color="#a3a3a3"/>  </radialGradient>  <linearGradient y2="0" x2="0.5" y1="0" x1="0" spreadMethod="reflect" id="fill_fg">   <stop offset="0" stop-opacity="0.98828" stop-color="#ff7f07"/>   <stop offset="0.44141" stop-opacity="0.99219" stop-color="#ffb600"/>   <stop offset="0.83594" stop-opacity="0.99219" stop-color="#ffdc5e"/>  </linearGradient>  <radialGradient r="0.5" cy="0.5" cx="0.5" spreadMethod="reflect" id="fill_bottom">   <stop offset="0.5" stop-opacity="0.98828" stop-color="#ff7f07"/>   <stop offset="1" stop-opacity="0.98828" stop-color="#ffdc5e"/>  </radialGradient>  <radialGradient id="svg_6" spreadMethod="reflect" cx="0.5" cy="0.5" r="0.5">   <stop stop-color="#e0e0e0" stop-opacity="0.99219" offset="0.5"/>   <stop stop-color="#a3a3a3" stop-opacity="0.99219" offset="1"/>  </radialGradient> </defs> <g>  <title>Layer 1</title>  <path id="svg_2" fill="url(#fill_bg)" stroke="#352c2c" d="m3.5,16.16667c12.5,6.6507 21,6.6507 33,0l0,271.46999c-12.5,7.117 -22,7.117 -33,0l0,-135.73999l0,-135.73l0,0l0,0l0,0l0,0.0001l0,-0.0001z"/>  <ellipse id="svg_3" ry="5.625" rx="15.875" cy="286.25" cx="20" fill="url(#fill_bottom)" opacity="0.5"/>  <path stroke="#000000" stroke-width="0" stroke-opacity="0" id="svg_4" fill="url(#fill_fg)" d="m3.75,21.00896c6.48358,-7.61279 26.42677,-7.7718 32.5,0l0,264.75685c-12.31061,6.93869 -21.66667,6.93869 -32.5,0l0,-132.38158l0,-132.37527l0,0l0,0l0,0l0,0l0,0z"/>  <ellipse stroke="#352c2c" ry="5.75" rx="16.5" cy="14.95833" cx="20.29167" fill="url(#fill_emptytop)" opacity="0.5" id="svg_5"/>  <line y2="288" x2="50.5" y1="288" x1="41.5" stroke-width="1.5" stroke="#fff" fill="none" id="svg_15"/>  <line y2="164.75" x2="51.5" y1="164.75" x1="42.5" stroke-width="1.5" stroke="#fff" fill="none" id="svg_18"/>  <line y2="15.25" x2="51" y1="15.25" x1="42" stroke-width="1.5" stroke="#fff" fill="none" id="svg_19"/>  <text xml:space="preserve" y="294.5" x="59.5" text-anchor="middle" fill="#fff" font-size="20" font-family="Segoe UI Light" id="svg_20">0</text>  <text xml:space="preserve" y="171.75" x="60" text-anchor="middle" fill="#fff" font-size="20" font-family="Segoe UI Light" id="svg_21">5</text>  <text xml:space="preserve" y="22" x="65" text-anchor="middle" fill="#fff" font-size="20" font-family="Segoe UI Light" id="svg_22">10</text> </g></svg>